PathFileType	4	(X/Y/Z)	C:/Users/alexw/Dropbox/ABI/BIOMENG 771 Files/BIOMENG_771/KinematicsLab/Right.trc	
DataRate	CameraRate	NumFrames	NumMarkers	Units	OrigDataRate	OrigDataStartFrame	OrigNumFrames	
120.00	120.00	37	8	mm	120.00	1445	1623	
Frame#	Time	RAsis			LAsis			RPsis			LPsis			RThighInferior			RThighLateral			RPatella			RThighSuperior			
		X1	Y1	Z1	X2	Y2	Z2	X3	Y3	Z3	X4	Y4	Z4	X5	Y5	Z5	X6	Y6	Z6	X7	Y7	Z7	X8	Y8	Z8	

1421	11.833	-403.17493	239.78882	1059.28052	-175.67982	137.90337	978.70105	-215.88913	390.59799	1027.03101	-164.28975	362.20709	1017.23737	-484.65359	257.00662	619.39404	-453.42441	217.93860	710.98962	-464.32056	223.68752	529.67206	-453.10657	318.58740	857.59259 
1422	11.842	-402.91727	241.68965	1058.45056	-175.78755	138.07959	978.76624	-214.01912	390.85007	1026.22095	-163.00902	361.97205	1016.65216	-482.37381	253.16238	618.89111	-451.13229	215.38971	711.03748	-461.08243	218.63673	529.85730	-450.29202	317.32599	855.93567 
1423	11.850	-402.69382	243.64671	1057.49548	-175.82851	138.27501	978.79462	-212.38544	391.00143	1025.32605	-161.65051	361.81186	1016.02972	-479.97159	249.30289	618.33246	-448.97995	212.89880	711.11121	-458.04437	213.26166	530.17163	-447.91379	316.43823	854.25305 
1424	11.858	-402.35522	245.22185	1056.72559	-175.69931	138.47664	978.87439	-210.96588	391.18359	1024.49634	-160.20808	361.75806	1015.40491	-478.04886	245.55975	618.12781	-447.03033	210.47031	711.29651	-455.24268	208.36774	530.25537	-447.91333	316.79208	853.45135 
1425	11.867	-402.03925	246.66826	1055.79871	-175.36354	138.74838	978.92944	-209.96759	391.25150	1023.61487	-158.87617	361.88306	1014.79559	-476.12830	241.77524	617.88141	-445.00256	208.12027	711.45605	-452.39606	203.27126	530.43854	-447.00113	316.60052	852.62830 
1426	11.875	-401.67081	247.88101	1054.89246	-174.93642	139.01157	978.90503	-208.68881	391.43109	1022.83636	-157.62701	361.93652	1014.29993	-474.16129	238.02271	617.58954	-443.06244	205.66412	711.60071	-449.89868	198.33286	530.90692	-445.64197	316.01309	851.32062 
1427	11.883	-401.32074	248.99773	1053.99243	-174.53813	139.29807	978.90051	-207.38525	391.63843	1022.08704	-156.53831	362.07617	1013.79193	-472.50610	234.28688	617.47516	-441.18173	203.26855	711.68567	-447.45651	193.25153	531.34900	-443.72729	315.16992	849.97400 
1428	11.892	-401.04276	249.88091	1052.95935	-173.94600	139.62003	978.90082	-206.66576	391.89432	1021.23004	-155.67732	362.30405	1013.19800	-470.65851	230.37788	617.18878	-439.19919	200.83459	711.82776	-444.95599	188.12773	531.75244	-442.37024	314.36792	848.68988 
1429	11.900	-400.63379	250.50180	1051.92212	-173.35986	139.93069	978.80774	-205.86200	392.36633	1020.42389	-154.94118	362.57153	1012.59106	-469.09775	226.56090	617.04053	-437.12183	198.48813	711.97437	-442.75970	183.31192	532.29077	-440.46729	313.06729	847.23761 
1430	11.908	-400.28397	250.94110	1050.85181	-172.81070	140.24617	978.87335	-205.30496	392.66449	1019.60046	-154.23180	362.83109	1012.15778	-467.33496	222.66832	616.79138	-435.07556	196.07352	712.11102	-440.52896	178.30708	532.70782	-440.07727	312.68079	846.09851 
1431	11.917	-400.07233	251.45532	1049.66528	-172.22360	140.56804	978.88538	-204.76839	392.97125	1018.88153	-153.78464	363.24390	1011.59271	-465.67667	218.55423	616.73163	-433.15555	193.47517	712.22937	-438.63815	173.36507	533.14044	-439.57043	311.91138	845.20490 
1432	11.925	-399.94083	251.70236	1048.67981	-171.64142	140.97800	978.93097	-204.65828	393.40897	1017.94958	-153.50731	363.76450	1011.05341	-463.80960	214.24037	616.57581	-431.32278	190.97505	712.39130	-436.18475	168.64407	533.71912	-439.01199	311.00229	844.20648 
1433	11.933	-399.61755	251.87413	1047.58923	-171.11478	141.53227	978.93304	-204.42186	393.79465	1017.26526	-153.29652	364.35019	1010.62335	-462.14575	210.18985	616.49274	-429.46692	188.41753	712.57526	-434.42892	163.90486	534.08264	-438.57126	309.77347	843.28156 
1434	11.942	-399.49594	251.97491	1046.65186	-170.53621	142.06804	978.91583	-204.26602	394.18045	1016.59955	-153.10896	364.84494	1010.15735	-460.43082	205.94478	616.29462	-427.73001	185.80341	712.86255	-432.40649	159.27875	534.56537	-437.41150	308.47891	841.79712 
1435	11.950	-399.51736	252.02731	1045.83667	-170.02739	142.62413	978.85254	-204.52159	394.63855	1015.64520	-153.17996	365.38049	1009.50629	-458.93521	202.13629	616.37067	-426.17023	183.08455	713.14026	-430.79382	154.78986	534.98364	-436.92896	307.08243	840.79248 
1436	11.958	-399.50552	251.91275	1044.97937	-169.52829	143.15421	978.93219	-204.56921	395.08322	1014.95325	-153.30942	365.99271	1008.90765	-457.43439	198.33138	616.32251	-424.78137	180.38983	713.44116	-429.05569	150.58762	535.32092	-436.95331	305.45172	840.13782 
1437	11.967	-399.50699	251.78159	1044.27612	-169.05861	143.76086	978.95435	-204.92030	395.53555	1014.26965	-153.57474	366.57855	1008.31549	-456.10318	194.58795	616.28644	-423.50311	177.69002	713.67609	-427.44742	146.43956	535.66888	-436.43768	304.12155	839.04034 
1438	11.975	-399.58383	251.53816	1043.63440	-168.46555	144.40009	979.00043	-205.42856	395.86926	1013.44904	-153.92075	367.15558	1007.77283	-454.93579	191.19682	616.32764	-422.13449	174.87680	713.88629	-425.85187	142.58986	535.79382	-436.20584	302.52557	838.04425 
1439	11.983	-399.74564	251.27007	1043.22632	-167.94016	144.90843	979.04077	-205.96846	396.16803	1012.59558	-154.32909	367.82410	1007.13879	-453.84317	187.92735	616.33984	-421.04584	172.42137	713.89746	-424.17529	139.01149	535.93750	-435.12833	300.31378	837.00171 
1440	11.992	-399.90057	250.78128	1042.83325	-167.43364	145.37663	979.06323	-206.85339	396.49255	1011.74780	-154.88867	368.38397	1006.56104	-452.73532	184.77542	616.29993	-419.91953	169.99573	713.73834	-422.57913	135.41896	536.00983	-435.35754	298.57550	836.61212 
1441	12.000	-400.08102	250.07527	1042.44409	-166.93434	145.68697	979.21643	-207.41017	396.78754	1011.20544	-155.52585	368.99286	1005.95569	-451.65591	181.71925	616.31696	-418.84213	167.44682	713.86249	-420.99680	132.00587	536.10596	-434.81500	296.55652	835.97516 
1442	12.008	-400.13519	249.32988	1042.10950	-166.39618	146.11348	979.25885	-208.09122	397.14197	1010.56580	-156.05670	369.46744	1005.49725	-450.42563	178.74124	616.22919	-417.96103	165.07642	713.82825	-419.32590	128.73915	536.10901	-435.08264	294.64914	835.59320 
1443	12.017	-400.28595	248.76544	1041.86890	-165.91451	146.54811	979.41315	-209.12119	397.38947	1009.81830	-156.66283	370.03073	1005.01514	-449.19788	175.69446	616.10730	-416.91861	162.59073	713.91473	-417.71341	125.56358	536.12933	-434.89883	292.49796	835.01410 
1444	12.025	-400.63690	247.88925	1041.62122	-165.32336	146.95085	979.62524	-209.87909	397.67905	1009.29987	-157.32654	370.62613	1004.54932	-447.98090	172.80000	615.97589	-416.03690	159.96710	713.88782	-416.05029	122.72401	535.97815	-434.86420	290.40869	834.57587 
1445	12.033	-400.85925	247.04094	1041.44788	-164.88586	147.22447	979.86505	-210.65997	397.94855	1008.73346	-157.91614	371.14215	1004.08472	-446.94702	170.13428	615.89453	-415.09488	157.58794	713.71094	-414.58823	120.13033	535.83215	-434.80692	288.06882	834.14856 
1446	12.042	-401.07474	246.14641	1041.40356	-164.38126	147.47365	980.16370	-211.68542	398.07620	1008.18127	-158.74277	371.76105	1003.65570	-446.06021	167.39688	615.76154	-414.36246	155.27187	713.70978	-413.02277	117.60799	535.48059	-435.09280	285.97617	833.81622 
1447	12.050	-401.35638	244.98730	1041.36731	-163.86143	147.74828	980.56250	-212.94521	397.95718	1007.65131	-159.61488	372.11261	1003.41992	-445.26578	164.71796	615.59814	-413.81046	153.01550	713.55615	-411.53802	115.40186	535.19470	-435.23233	283.78076	833.47253 
1448	12.058	-401.54221	243.86621	1041.30090	-163.42513	148.00905	980.93011	-213.89287	397.98849	1007.16895	-160.52760	372.46249	1003.06042	-444.79877	162.64909	615.54730	-413.32047	151.00903	713.43457	-410.46933	113.24290	535.06519	-435.65924	281.69458	833.14429 
1449	12.067	-401.75055	242.74921	1041.26917	-162.98692	148.20990	981.33325	-215.07573	398.11899	1006.64661	-161.61156	372.86404	1002.62048	-444.23404	160.43544	615.35950	-412.95184	148.83980	713.35138	-409.48541	111.32136	534.77313	-436.06937	279.56845	832.83527 
1450	12.075	-402.05481	241.61816	1041.45557	-162.56558	148.42000	981.80383	-216.20889	398.23645	1006.18555	-163.40492	372.80795	1002.13831	-443.78564	158.53358	615.09875	-412.59406	147.04237	713.19794	-408.35693	109.72375	534.61237	-436.86310	277.81250	832.77264 
1451	12.083	-402.11145	240.18944	1041.57581	-162.06607	148.61226	982.21875	-217.49782	398.19769	1005.64258	-164.44853	373.16266	1001.79340	-443.33820	156.56349	614.92444	-412.30930	145.11736	713.10443	-407.19791	108.08585	534.19299	-437.22061	275.79578	832.59595 
1452	12.092	-402.16483	238.81737	1041.57898	-161.55191	148.94055	982.63037	-218.72456	398.19684	1005.01343	-165.74394	373.46677	1001.18164	-442.69998	155.26038	614.61664	-412.39020	143.52261	712.82397	-406.45883	106.77617	533.83612	-437.82825	273.87378	832.36737 
1453	12.100	-402.49252	237.57652	1041.82556	-161.15208	149.20564	982.93494	-220.03519	398.08475	1004.60986	-166.50406	374.04669	1001.12305	-442.17438	153.62766	614.09564	-412.09488	141.84210	712.63135	-405.76746	105.62164	533.63184	-438.56412	272.04816	832.29608 
1454	12.108	-402.55392	236.10695	1041.93066	-160.77974	149.39224	983.27625	-221.48340	397.93393	1004.01526	-168.12523	373.87766	1000.30731	-441.63208	152.52203	613.44183	-412.01807	140.25412	712.46301	-405.07230	104.52226	533.11298	-438.65247	269.96039	831.81879 
1455	12.117	-402.67084	234.67099	1042.10840	-160.39989	149.55670	983.50580	-223.19604	396.98978	1003.12616	-169.32445	373.99414	999.87842	-442.20596	150.80260	613.55292	-411.86990	138.89328	712.13037	-404.77899	103.78808	532.65302	-439.66776	268.21973	831.95825 
1456	12.125	-402.95938	233.39215	1042.28735	-159.98470	149.70660	983.74493	-224.20216	397.34778	1003.11621	-170.15993	374.75970	999.96606	-442.07162	149.39644	612.91260	-411.77875	137.45845	711.79272	-404.69284	103.00659	532.08057	-440.49435	266.54715	831.87537 
1457	12.133	-403.06915	232.10742	1042.44702	-159.62126	149.83160	984.06464	-225.61449	397.08917	1002.45667	-171.76534	374.26056	999.02576	-442.13510	148.21686	612.48303	-411.68198	136.14787	711.01569	-404.71295	102.46712	531.37427	-440.85016	264.84381	831.79694 
